<?xml version="1.0" encoding="UTF-8" standalone="no"?>
<!-- Created with Inkscape (http://www.inkscape.org/) -->

<svg
   xmlns:dc="http://purl.org/dc/elements/1.1/"
   xmlns:cc="http://creativecommons.org/ns#"
   xmlns:rdf="http://www.w3.org/1999/02/22-rdf-syntax-ns#"
   xmlns:svg="http://www.w3.org/2000/svg"
   xmlns="http://www.w3.org/2000/svg"
   xmlns:sodipodi="http://sodipodi.sourceforge.net/DTD/sodipodi-0.dtd"
   xmlns:inkscape="http://www.inkscape.org/namespaces/inkscape"
   width="210mm"
   height="297mm"
   viewBox="0 0 744.09448819 1052.3622047"
   id="svg2"
   version="1.1"
   inkscape:version="0.91 r13725"
   sodipodi:docname="ontheroad.svg">
  <defs
     id="defs4" />
  <sodipodi:namedview
     id="base"
     pagecolor="#ffffff"
     bordercolor="#666666"
     borderopacity="1.0"
     inkscape:pageopacity="0.0"
     inkscape:pageshadow="2"
     inkscape:zoom="0.41519968"
     inkscape:cx="350.43803"
     inkscape:cy="613.98015"
     inkscape:document-units="px"
     inkscape:current-layer="layer1"
     showgrid="false"
     inkscape:window-width="1072"
     inkscape:window-height="1833"
     inkscape:window-x="0"
     inkscape:window-y="0"
     inkscape:window-maximized="0" />
  <metadata
     id="metadata7">
    <rdf:RDF>
      <cc:Work
         rdf:about="">
        <dc:format>image/svg+xml</dc:format>
        <dc:type
           rdf:resource="http://purl.org/dc/dcmitype/StillImage" />
        <dc:title />
      </cc:Work>
    </rdf:RDF>
  </metadata>
  <g
     inkscape:label="Layer 1"
     inkscape:groupmode="layer"
     id="layer1">
    <rect
       style="fill:#ececec"
       id="rect3370"
       width="800"
       height="800"
       x="-28.901756"
       y="125.6756" />
    <rect
       style="fill:#ff0000"
       id="rect3407"
       width="343.57169"
       height="352.62286"
       x="295.26633"
       y="132.51186"
       transform="matrix(0.96989409,0.24352713,-0.2393229,0.97094003,0,0)" />
    <rect
       style="fill:#ffff00"
       id="rect3405"
       width="286.89777"
       height="265.49213"
       x="354.56689"
       y="433.31433"
       transform="matrix(0.99847516,0.05520288,-0.05419442,0.9985304,0,0)" />
    <rect
       style="fill:#00ff00"
       id="rect3403"
       width="258.71692"
       height="255.48105"
       x="-95.967827"
       y="505.34171"
       transform="matrix(0.93409031,-0.35703682,0.35130896,0.93625959,0,0)" />
    <rect
       style="fill:#4d4d4d"
       id="rect3347"
       width="37.451389"
       height="13.229748"
       x="62.595226"
       y="771.06403" />
    <rect
       style="fill:#00ffff"
       id="rect3345"
       width="26.160177"
       height="182.85527"
       x="-142.17612"
       y="827.10468"
       transform="matrix(1,0,0.68301978,0.73039988,0,0)" />
    <rect
       style="fill:#0000ff"
       id="rect3343"
       width="607.56207"
       height="95.914955"
       x="287.97467"
       y="710.08844"
       transform="matrix(0.99983204,0.0183275,-0.2681024,0.96339042,0,0)" />
    <ellipse
       style="fill:#000000"
       id="path3342"
       cx="338.17789"
       cy="796.46509"
       rx="45.460995"
       ry="44.663239"
       transform="matrix(1,0,-0.15811441,0.9874208,0,0)" />
    <ellipse
       style="fill:#000000"
       id="path3342-6"
       cx="647.3634"
       cy="795.11157"
       rx="45.460995"
       ry="44.663239"
       transform="matrix(1,0,-0.15811441,0.9874208,0,0)"
       inkscape:transform-center-x="5.2964086"
       inkscape:transform-center-y="7.1274824" />
    <rect
       style="fill:#ccff00"
       id="rect3351"
       width="23.207058"
       height="21.105576"
       x="967.78882"
       y="772.69165"
       transform="matrix(1,0,-0.37916207,0.92533028,0,0)" />
    <rect
       style="fill:#1a1a1a"
       id="rect3353"
       width="78.023727"
       height="8.1898441"
       x="595.02917"
       y="692.94543" />
    <rect
       style="fill:#1a1a1a"
       id="rect3355"
       width="101.11875"
       height="27.089483"
       x="137.498"
       y="665.22595" />
    <path
       style="fill:none;fill-rule:evenodd;stroke:#000000;stroke-width:0.87791508px;stroke-linecap:butt;stroke-linejoin:miter;stroke-opacity:1"
       d="M 488.91688,699.87535 463.3251,783.03378"
       id="path3375"
       inkscape:connector-curvature="0" />
    <path
       style="fill:none;fill-rule:evenodd;stroke:#000000;stroke-width:0.87791508px;stroke-linecap:butt;stroke-linejoin:miter;stroke-opacity:1"
       d="m 374.69014,697.9854 -31.83368,86.93834"
       id="path3377"
       inkscape:connector-curvature="0" />
    <path
       style="fill:none;fill-rule:evenodd;stroke:#000000;stroke-width:0.87791508px;stroke-linecap:butt;stroke-linejoin:miter;stroke-opacity:1"
       d="m 399.03355,718.14501 -23.71922,-0.62999 c 0.20807,0.83998 0.18282,1.7775 0.62419,2.51996 0.23936,0.40264 0.86128,0.36951 1.24838,0.62998 0.72022,0.48461 1.15235,1.40536 1.87257,1.88997 0.38711,0.26046 0.86127,0.36952 1.24838,0.62999 0.24483,0.16473 0.34504,0.53607 0.62419,0.62998 0.39478,0.13282 0.84826,-0.11538 1.24838,0 1.07734,0.31067 2.03394,0.98571 3.12095,1.25998 0.60555,0.15279 1.24837,0 1.87257,0 1.24838,0 2.49676,0 3.74513,0 1.24838,0 2.49677,0 3.74515,0 0.41612,0 0.87618,0.18782 1.24838,0 0.52636,-0.26563 0.75872,-0.93051 1.24837,-1.25998 0.17313,-0.11648 0.4381,0.0939 0.6242,0 0.26318,-0.13281 0.361,-0.49717 0.62418,-0.62998 0.1861,-0.0939 0.4381,0.0939 0.6242,0 0.26318,-0.13282 0.88736,-0.49718 0.62418,-0.62999 -0.55829,-0.28174 -1.24838,0 -1.87256,0 -0.83226,0 -1.66452,0 -2.49677,0 -1.04031,0 -2.08063,0 -3.12095,0 -0.41612,0 -0.8536,-0.13281 -1.24838,0 -0.44136,0.14849 -0.807,0.4815 -1.24837,0.62999 -0.19739,0.0664 -0.42681,-0.0664 -0.62419,0 -1.14196,0.38418 -1.69327,1.07901 -2.49677,1.88996"
       id="path3381"
       inkscape:connector-curvature="0" />
    <path
       style="fill:none;fill-rule:evenodd;stroke:#000000;stroke-width:0.87791508px;stroke-linecap:butt;stroke-linejoin:miter;stroke-opacity:1"
       d="m 241.11352,696.72542 -24.3434,44.09916"
       id="path3383"
       inkscape:connector-curvature="0" />
    <path
       style="fill:none;fill-rule:evenodd;stroke:#000000;stroke-width:0.87791508px;stroke-linecap:butt;stroke-linejoin:miter;stroke-opacity:1"
       d="m 274.81977,713.1051 c -3.32901,0 -6.65803,0 -9.98704,0 -4.16127,0 -8.32253,0 -12.4838,0 -0.83225,0 -1.6645,0 -2.49676,0 -0.41612,0 -1.24837,0.42 -1.24837,0 0,-0.41999 1.6645,0 1.24837,0 -1.24837,0 -2.49675,0 -3.74513,0 -0.20807,0 -0.62419,0.21 -0.62419,0 0,-0.20999 0.41612,0 0.62419,0"
       id="path3385"
       inkscape:connector-curvature="0" />
    <path
       style="fill:none;fill-rule:evenodd;stroke:#000000;stroke-width:0.87791508px;stroke-linecap:butt;stroke-linejoin:miter;stroke-opacity:1"
       d="m 248.6038,713.73509 c 1.28033,1.63054 2.94202,0.26986 4.36932,0.63 0.45136,0.11388 0.83226,0.41999 1.24838,0.62998 0.83226,0.21 1.65556,0.46018 2.49676,0.62999 1.00031,0.20192 2.12064,-0.20192 3.12095,0 0.28853,0.0582 0.36101,0.49717 0.62419,0.62998 0.3722,0.18783 0.84034,-0.0824 1.24838,0 0.84121,0.16981 1.64752,0.50755 2.49676,0.63 0.61792,0.0891 1.24838,0 1.87257,0 1.87257,0 3.74514,0 5.61771,0 1.41019,0 -0.27915,-0.0939 1.87257,0.62998 0.44137,0.1485 1.87257,-0.40868 1.87257,0.62999 0,0.21 -0.42234,-0.0509 -0.62419,0 -0.63831,0.16106 -1.21864,0.55666 -1.87257,0.62999 -1.24074,0.13914 -2.49676,0 -3.74514,0 -0.62419,0 -1.2605,-0.12355 -1.87257,0 -0.45621,0.0921 -0.79703,0.5161 -1.24838,0.62999 -0.4037,0.10186 -0.83225,0 -1.24838,0 -0.41612,0 -0.83225,0 -1.24838,0 -1.45644,0 -2.91289,0 -4.36932,0 -0.41613,0 -0.83226,0 -1.24838,0"
       id="path3389"
       inkscape:connector-curvature="0" />
    <path
       style="fill:none;fill-rule:evenodd;stroke:#000000;stroke-width:0.87791508px;stroke-linecap:butt;stroke-linejoin:miter;stroke-opacity:1"
       d="m 580.04859,714.36509 -13.73217,21.41958"
       id="path3393"
       inkscape:connector-curvature="0" />
    <path
       style="fill:none;fill-rule:evenodd;stroke:#000000;stroke-width:0.87791508px;stroke-linecap:butt;stroke-linejoin:miter;stroke-opacity:1"
       d="m 574.43088,747.12446 18.10151,-32.12939"
       id="path3395"
       inkscape:connector-curvature="0" />
    <path
       style="fill:none;fill-rule:evenodd;stroke:#000000;stroke-width:0.87791508px;stroke-linecap:butt;stroke-linejoin:miter;stroke-opacity:1"
       d="m 605.01618,715.62506 -22.47082,37.79928"
       id="path3397"
       inkscape:connector-curvature="0" />
    <path
       style="fill:none;fill-rule:evenodd;stroke:#000000;stroke-width:0.87791508px;stroke-linecap:butt;stroke-linejoin:miter;stroke-opacity:1"
       d="m 600.64686,748.38443 19.34988,-31.49939"
       id="path3401"
       inkscape:connector-curvature="0" />
  </g>
</svg>
